#!OML:ASF F:\VICON\USERDATA\INSTALL\rory3\rory3.ASF
:FULLY-SPECIFIED
:DEGREES
262
root 8.18514 17.7217 6.94489 1.83755 45.4096 0.757189
lowerback 19.6287 0.694864 0.730201
upperback 4.5228 1.33517 1.99631
thorax -6.11927 0.704814 1.392
lowerneck -11.46 -4.82006 -11.9878
upperneck 39.5685 -4.32354 3.90056
head 16.6361 -2.75421 3.22237
rclavicle -4.77083e-014 -1.98785e-014
rhumerus -26.5604 -8.91316 -78.1612
rradius 39.0188
rwrist 4.43876
rhand -15.1172 8.12667
rfingers 7.12502
rthumb 11.0517 -21.5624
lclavicle -4.77083e-014 -1.98785e-014
lhumerus -27.3026 1.33256 84.8468
lradius 51.1636
lwrist 1.79759
lhand -20.1106 25.692
lfingers 7.12502
lthumb 6.23305 55.5803
rfemur -27.5668 -19.0524 26.5155
rtibia 36.119
rfoot -9.39858 -5.16677
rtoes 21.0646
lfemur -27.1268 6.28713 -18.7416
ltibia 59.9398
lfoot 1.95745 -12.9917
ltoes -7.4347
263
root 8.21157 17.6933 6.9871 1.69871 45.125 0.514117
lowerback 19.9031 0.804587 0.92692
upperback 4.59104 1.53153 2.08384
thorax -6.19239 0.798774 1.32302
lowerneck -11.4544 -4.86886 -12.0745
upperneck 39.5659 -4.38199 3.93327
head 16.6462 -2.78569 3.24238
rclavicle -6.83819e-014 1.59028e-015
rhumerus -26.1917 -8.44145 -78.1601
rradius 39.1958
rwrist 4.18904
rhand -14.6211 7.72344
rfingers 7.12502
rthumb 11.5302 -21.9394
lclavicle -6.83819e-014 1.59028e-015
lhumerus -27.5843 0.807703 85.0628
lradius 52.1683
lwrist 2.40203
lhand -19.9233 25.9725
lfingers 7.12502
lthumb 6.41383 55.8554
rfemur -27.8858 -19.4949 26.8221
rtibia 36.9247
rfoot -9.64387 -4.61785
rtoes 17.4235
lfemur -28.0364 6.53207 -18.3979
ltibia 60.9628
lfoot 0.484886 -12.7975
ltoes -7.00297
264
root 8.23938 17.6628 7.02278 1.90769 44.8643 0.58665
lowerback 20.0958 0.902649 1.03176
upperback 4.61924 1.68023 2.022
thorax -6.26161 0.869029 1.15759
lowerneck -11.4188 -4.90519 -11.9965
upperneck 39.5212 -4.48957 3.99764
head 16.6226 -2.80882 3.23798
rclavicle -2.3059e-014 1.43125e-014
rhumerus -25.7838 -8.10639 -78.2781
rradius 39.3263
rwrist 4.02086
rhand -14.5006 7.6089
rfingers 7.12502
rthumb 11.6464 -22.0474
lclavicle -2.3059e-014 1.43125e-014
lhumerus -27.6805 0.369517 85.214
lradius 52.8936
lwrist 3.0953
lhand -20.4205 26.6042
lfingers 7.12502
lthumb 5.93381 56.5012
rfemur -28.4392 -19.9949 26.9346
rtibia 37.824
rfoot -10.122 -4.09863
rtoes 15.4838
lfemur -29.0555 6.76384 -18.3791
ltibia 61.73
lfoot -0.847517 -12.4983
ltoes -5.51642
265
root 8.27159 17.6313 7.05746 2.34175 44.6288 0.920554
lowerback 20.1702 1.02096 0.992295
upperback 4.66378 1.81797 1.903
thorax -6.25191 0.935767 1.01692
lowerneck -11.2658 -4.93774 -11.7916
upperneck 39.3478 -4.61525 3.98221
head 16.4931 -2.82926 3.16906
rclavicle 2.78299e-015 -6.36111e-015
rhumerus -25.3587 -7.79191 -78.3922
rradius 39.4441
rwrist 4.00153
rhand -14.7757 7.65244
rfingers 7.12502
rthumb 11.381 -22.0187
lclavicle 2.78299e-015 -6.36111e-015
lhumerus -27.7093 0.0491127 85.3678
lradius 53.572
lwrist 3.15229
lhand -20.5921 25.8938
lfingers 7.12502
lthumb 5.7682 55.7953
rfemur -29.0977 -20.5636 26.8536
rtibia 38.8146
rfoot -10.75 -3.5417
rtoes 15.8355
lfemur -30.0467 6.95595 -18.6206
ltibia 62.2402
lfoot -1.93417 -12.1807
ltoes -4.09247
266
root 8.30443 17.5975 7.0924 2.74907 44.41 1.31486
lowerback 20.2334 1.1589 0.877816
upperback 4.7743 1.96933 1.82585
thorax -6.16867 1.01152 0.96115
lowerneck -11.2672 -5.01474 -11.6736
upperneck 39.266 -4.71956 3.86674
head 16.4527 -2.86727 3.07562
rclavicle -3.4191e-014 2.62396e-014
rhumerus -24.8211 -7.49931 -78.3922
rradius 39.5389
rwrist 4.00576
rhand -15.0864 7.69417
rfingers 7.12502
rthumb 11.0814 -21.9933
lclavicle -3.4191e-014 2.62396e-014
lhumerus -27.8674 -0.613502 85.6291
lradius 54.4273
lwrist 3.60565
lhand -20.83 25.0171
lfingers 7.12502
lthumb 5.53853 54.9247
rfemur -29.7401 -21.1605 26.6936
rtibia 39.9051
rfoot -11.2009 -2.96297
rtoes 15.3662
lfemur -30.8724 7.09876 -18.9085
ltibia 62.5256
lfoot -3.08533 -11.7667
ltoes -4.29903
267
root 8.33499 17.5621 7.12632 3.12214 44.2205 1.74026
lowerback 20.3795 1.27055 0.647074
upperback 4.89946 2.06854 1.7987
thorax -6.11836 1.06383 1.03681
lowerneck -11.4724 -5.06102 -11.6036
upperneck 39.3476 -4.71625 3.70478
head 16.5403 -2.87566 2.99099
rclavicle -3.57812e-014 -2.62396e-014
rhumerus -24.1861 -7.11683 -78.3501
rradius 39.6537
rwrist 3.8994
rhand -14.9676 7.79181
rfingers 7.12502
rthumb 11.196 -21.8895
lclavicle -3.57812e-014 -2.62396e-014
lhumerus -28.1522 -1.31265 85.8695
lradius 55.3532
lwrist 4.12772
lhand -19.5606 25.5175
lfingers 7.12502
lthumb 6.76403 55.3895
rfemur -30.3762 -21.7442 26.4854
rtibia 41.0454
rfoot -11.4961 -2.41992
rtoes 14.0448
lfemur -31.572 7.15284 -19.2007
ltibia 62.6207
lfoot -4.16629 -11.1316
ltoes -5.77224
268
root 8.36504 17.5251 7.1589 3.59111 44.101 2.33065
lowerback 20.6211 1.32463 0.319119
upperback 4.98848 2.07069 1.73178
thorax -6.15747 1.06941 1.1471
lowerneck -11.651 -5.07047 -11.6651
upperneck 39.4216 -4.69273 3.71688
head 16.6263 -2.87354 3.01139
rclavicle -4.21423e-014 2.22639e-014
rhumerus -23.5091 -6.61869 -78.3864
rradius 39.7695
rwrist 3.73379
rhand -14.4492 7.79536
rfingers 7.12502
rthumb 11.696 -21.8582
lclavicle -4.21423e-014 2.22639e-014
lhumerus -28.2686 -1.50825 85.969
lradius 56.0591
lwrist 3.74037
lhand -18.6011 25.864
lfingers 7.12502
lthumb 7.69016 55.7042
rfemur -31.0102 -22.3449 26.1371
rtibia 42.1806
rfoot -11.9299 -1.96728
rtoes 13.3994
lfemur -32.199 7.07815 -19.6373
ltibia 62.5801
lfoot -4.99264 -10.1853
ltoes -6.86508
269
root 8.39656 17.4846 7.19023 4.04933 44.0092 2.85414
lowerback 20.8445 1.33723 0.176985
upperback 5.04959 2.04933 1.58088
thorax -6.20681 1.06072 1.06734
lowerneck -11.6208 -5.09178 -11.7404
upperneck 39.3366 -4.78327 3.90271
head 16.5916 -2.89714 3.09024
rclavicle 1.09332e-013 -1.19271e-014
rhumerus -22.867 -6.0726 -78.5717
rradius 39.9625
rwrist 3.52571
rhand -14.2907 7.65587
rfingers 7.12502
rthumb 11.8488 -21.9889
lclavicle 1.09332e-013 -1.19271e-014
lhumerus -28.1659 -1.46967 85.9659
lradius 56.5729
lwrist 2.85932
lhand -19.1752 25.7192
lfingers 7.12502
lthumb 7.13608 55.5789
rfemur -31.6759 -22.8464 25.8442
rtibia 43.3167
rfoot -12.4795 -1.64868
rtoes 13.0539
lfemur -32.8314 6.98672 -20.0285
ltibia 62.4301
lfoot -5.60969 -9.41047
ltoes -6.79884
270
root 8.42813 17.4388 7.22029 4.25886 43.871 2.75378
lowerback 20.8965 1.34144 0.485831
upperback 5.06436 2.11529 1.51959
thorax -6.20622 1.08863 0.807686
lowerneck -11.6154 -5.11661 -11.6142
upperneck 39.2487 -4.8736 3.93327
head 16.5463 -2.91062 3.06318
rclavicle 2.66371e-014 -7.15625e-015
rhumerus -22.2717 -5.61338 -78.76
rradius 40.1977
rwrist 3.4211
rhand -14.5663 7.52486
rfingers 7.12502
rthumb 11.583 -22.135
lclavicle 2.66371e-014 -7.15625e-015
lhumerus -28.0402 -1.62309 86.0031
lradius 57.1006
lwrist 2.3806
lhand -19.7863 25.4928
lfingers 7.12502
lthumb 6.54614 55.3716
rfemur -32.5299 -23.1298 26.1196
rtibia 44.4717
rfoot -12.956 -1.50155
rtoes 13.5001
lfemur -33.712 7.10218 -19.9565
ltibia 62.2186
lfoot -6.17787 -8.97093
ltoes -6.4199
271
root 8.45986 17.3881 7.24999 4.52774 43.6975 2.77947
lowerback 20.9947 1.40127 0.660155
upperback 5.06872 2.22789 1.48113
thorax -6.24638 1.14054 0.635908
lowerneck -11.6269 -5.14051 -11.5095
upperneck 39.1766 -4.91878 3.88097
head 16.5081 -2.91872 3.01105
rclavicle -2.78299e-015 -1.27222e-014
rhumerus -21.7484 -5.37147 -78.8349
rradius 40.4601
rwrist 3.5296
rhand -14.7258 7.37389
rfingers 7.12502
rthumb 11.4292 -22.2946
lclavicle -2.78299e-015 -1.27222e-014
lhumerus -28.0316 -2.00657 86.1547
lradius 57.7338
lwrist 2.27234
lhand -20.0802 25.5606
lfingers 7.12502
lthumb 6.26242 55.448
rfemur -33.3588 -23.3318 26.2649
rtibia 45.6743
rfoot -12.817 -1.40457
rtoes 6.99684
lfemur -34.5162 7.21694 -20.012
ltibia 61.9152
lfoot -6.85005 -8.74701
ltoes -6.44259
272
root 8.49162 17.3344 7.28078 4.809 43.605 3.03191
lowerback 21.1961 1.41605 0.62926
upperback 5.13092 2.24331 1.46402
thorax -6.28466 1.14898 0.62707
lowerneck -11.6411 -5.13238 -11.5489
upperneck 39.022 -4.86251 3.79082
head 16.4224 -2.91069 2.98256
rclavicle -7.99114e-014 -2.38542e-015
rhumerus -21.1367 -5.17849 -78.864
rradius 40.6174
rwrist 3.62795
rhand -14.6333 7.3878
rfingers 7.12502
rthumb 11.5184 -22.2757
lclavicle -7.99114e-014 -2.38542e-015
lhumerus -28.0249 -2.2466 86.3558
lradius 58.3878
lwrist 2.1277
lhand -20.228 26.0491
lfingers 7.12502
lthumb 6.11971 55.9407
rfemur -34.0494 -23.6525 26.1613
rtibia 46.9336
rfoot -14.2055 -1.15117
rtoes 11.0437
lfemur -35.1008 7.24659 -20.2579
ltibia 61.5271
lfoot -7.85472 -8.92335
ltoes -7.42955
